<svg width="70" height="70" viewBox="0 0 70 70" fill="none" xmlns="http://www.w3.org/2000/svg">
<path d="M35 65.625C26.8777 65.625 19.0882 62.3984 13.3449 56.6551C7.60155 50.9118 4.375 43.1223 4.375 35C4.375 26.8777 7.60155 19.0882 13.3449 13.3449C19.0882 7.60155 26.8777 4.375 35 4.375C43.1223 4.375 50.9118 7.60155 56.6551 13.3449C62.3984 19.0882 65.625 26.8777 65.625 35C65.625 43.1223 62.3984 50.9118 56.6551 56.6551C50.9118 62.3984 43.1223 65.625 35 65.625ZM35 70C44.2826 70 53.185 66.3125 59.7487 59.7487C66.3125 53.185 70 44.2826 70 35C70 25.7174 66.3125 16.815 59.7487 10.2513C53.185 3.68749 44.2826 0 35 0C25.7174 0 16.815 3.68749 10.2513 10.2513C3.68749 16.815 0 25.7174 0 35C0 44.2826 3.68749 53.185 10.2513 59.7487C16.815 66.3125 25.7174 70 35 70Z" fill="#2BC7C1"/>
<path d="M18.7468 41.8556C19.2492 41.5656 19.8463 41.4869 20.4067 41.6371C20.9671 41.7872 21.4449 42.1538 21.735 42.6562C23.0786 44.9852 25.0121 46.9191 27.3408 48.2632C29.6695 49.6073 32.3112 50.3141 35 50.3125C37.6887 50.3141 40.3304 49.6073 42.6591 48.2632C44.9878 46.9191 46.9213 44.9852 48.2649 42.6562C48.4075 42.4055 48.5983 42.1854 48.8263 42.0086C49.0543 41.8318 49.315 41.7019 49.5934 41.6264C49.8718 41.5508 50.1625 41.531 50.4485 41.5682C50.7346 41.6054 51.0105 41.6988 51.2604 41.843C51.5102 41.9873 51.729 42.1795 51.9043 42.4087C52.0795 42.6378 52.2077 42.8994 52.2814 43.1783C52.3552 43.4572 52.373 43.7479 52.3339 44.0338C52.2948 44.3196 52.1996 44.5949 52.0537 44.8437C50.3261 47.8378 47.8403 50.324 44.8466 52.052C41.8528 53.7801 38.4567 54.6891 35 54.6875C31.5432 54.6891 28.1471 53.7801 25.1533 52.052C22.1596 50.324 19.6738 47.8378 17.9462 44.8437C17.6561 44.3413 17.5775 43.7443 17.7277 43.1839C17.8778 42.6235 18.2444 42.1457 18.7468 41.8556ZM30.625 28.4375C30.625 32.06 28.665 35 26.25 35C23.835 35 21.875 32.06 21.875 28.4375C21.875 24.815 23.835 21.875 26.25 21.875C28.665 21.875 30.625 24.815 30.625 28.4375ZM48.125 28.4375C48.125 32.06 46.165 35 43.75 35C41.335 35 39.375 32.06 39.375 28.4375C39.375 24.815 41.335 21.875 43.75 21.875C46.165 21.875 48.125 24.815 48.125 28.4375Z" fill="#2BC7C1"/>
</svg>
