<svg width="18" height="19" viewBox="0 0 18 19" fill="none" xmlns="http://www.w3.org/2000/svg">
<g clip-path="url(#clip0)">
<path d="M17.6693 14.7092L13.562 10.9748C13.3679 10.7983 13.1127 10.7042 12.8505 10.7123C12.5882 10.7204 12.3394 10.8301 12.1565 11.0182L9.73862 13.5048C9.15662 13.3937 7.98657 13.0289 6.78216 11.8276C5.57775 10.6221 5.21299 9.44907 5.10488 8.87112L7.58948 6.45222C7.77783 6.26947 7.88768 6.0206 7.89579 5.75828C7.9039 5.49597 7.80963 5.24079 7.63292 5.04675L3.89946 0.940476C3.72268 0.745829 3.47698 0.627761 3.21455 0.611347C2.95212 0.594934 2.69363 0.681468 2.49398 0.852571L0.301387 2.73293C0.126699 2.90825 0.0224326 3.14159 0.00836818 3.38868C-0.00678797 3.64128 -0.295765 9.62488 4.34404 14.2667C8.39174 18.3133 13.462 18.6094 14.8584 18.6094C15.0625 18.6094 15.1878 18.6033 15.2211 18.6013C15.4682 18.5875 15.7014 18.4827 15.8758 18.3073L17.7552 16.1137C17.927 15.9147 18.0142 15.6564 17.9981 15.394C17.9821 15.1316 17.8641 14.8858 17.6693 14.7092Z" fill="#2BC7C1"/>
</g>
<defs>
<clipPath id="clip0">
<rect width="18" height="18" fill="white" transform="translate(0 0.609375)"/>
</clipPath>
</defs>
</svg>
