<svg width="70" height="70" viewBox="0 0 70 70" fill="none" xmlns="http://www.w3.org/2000/svg">
<path d="M23.3333 31.3831H21.6417C19.3331 31.2996 17.0321 31.6915 14.8813 32.5344C12.7306 33.3774 10.776 34.6533 9.1389 36.2831L8.67223 36.8275V52.9275H16.6056V43.7886L17.675 42.5831L18.1611 42.0192C20.6926 39.4185 23.8443 37.5047 27.3194 36.4581C25.5796 35.1342 24.2073 33.3871 23.3333 31.3831Z" fill="#2BC7C1"/>
<path d="M60.9389 36.225C59.3018 34.5952 57.3472 33.3193 55.1964 32.4763C53.0457 31.6334 50.7446 31.2415 48.4361 31.325C47.7281 31.327 47.0206 31.3659 46.3167 31.4416C45.4263 33.3217 44.0916 34.9568 42.4278 36.2055C46.1377 37.2319 49.4985 39.2484 52.15 42.0389L52.6361 42.5833L53.6861 43.7889V52.9472H61.3472V36.7694L60.9389 36.225Z" fill="#2BC7C1"/>
<path d="M21.5833 27.5919H22.1861C21.906 25.1871 22.328 22.7527 23.4011 20.5824C24.4741 18.4121 26.1524 16.5988 28.2333 15.3614C27.479 14.209 26.4383 13.2723 25.2132 12.6429C23.9881 12.0136 22.6206 11.7132 21.2445 11.7712C19.8684 11.8292 18.531 12.2436 17.3631 12.9738C16.1953 13.7039 15.2372 14.7249 14.5825 15.9366C13.9278 17.1484 13.599 18.5094 13.6284 19.8864C13.6577 21.2634 14.0442 22.6092 14.7499 23.7919C15.4556 24.9747 16.4564 25.9539 17.6543 26.6336C18.8521 27.3134 20.206 27.6704 21.5833 27.6697V27.5919Z" fill="#2BC7C1"/>
<path d="M47.5028 26.1336C47.5264 26.5805 47.5264 27.0284 47.5028 27.4753C47.8759 27.5344 48.2528 27.5669 48.6306 27.5725H49C50.3713 27.4994 51.7002 27.0724 52.8575 26.3333C54.0147 25.5941 54.9609 24.5678 55.6038 23.3544C56.2467 22.1411 56.5645 20.7819 56.5262 19.4092C56.4879 18.0365 56.0949 16.6972 55.3853 15.5215C54.6757 14.3459 53.6738 13.374 52.4771 12.7005C51.2804 12.027 49.9297 11.6748 48.5565 11.6782C47.1834 11.6817 45.8344 12.0407 44.6412 12.7202C43.4479 13.3997 42.4509 14.3766 41.7472 15.5558C43.5071 16.7049 44.9542 18.2728 45.9588 20.119C46.9633 21.9652 47.4938 24.0318 47.5028 26.1336Z" fill="#2BC7C1"/>
<path d="M34.7472 34.8443C39.5475 34.8443 43.4389 30.9529 43.4389 26.1526C43.4389 21.3523 39.5475 17.4609 34.7472 17.4609C29.947 17.4609 26.0556 21.3523 26.0556 26.1526C26.0556 30.9529 29.947 34.8443 34.7472 34.8443Z" fill="#2BC7C1"/>
<path d="M35.2139 39.472C32.6745 39.3695 30.1407 39.7818 27.7648 40.684C25.3889 41.5862 23.2201 42.9598 21.3889 44.722L20.9028 45.2665V57.5748C20.9104 57.9757 20.9969 58.3712 21.1573 58.7387C21.3178 59.1062 21.5491 59.4384 21.838 59.7165C22.1269 59.9946 22.4678 60.213 22.8411 60.3593C23.2145 60.5057 23.613 60.577 24.0139 60.5692H46.3556C46.7565 60.577 47.155 60.5057 47.5283 60.3593C47.9017 60.213 48.2425 59.9946 48.5314 59.7165C48.8203 59.4384 49.0516 59.1062 49.2121 58.7387C49.3726 58.3712 49.4591 57.9757 49.4667 57.5748V45.3054L49 44.722C47.1806 42.9544 45.0194 41.5769 42.6488 40.6742C40.2782 39.7714 37.7482 39.3623 35.2139 39.472Z" fill="#2BC7C1"/>
</svg>
