<svg width="70" height="70" viewBox="0 0 70 70" fill="none" xmlns="http://www.w3.org/2000/svg">
<path d="M35.1945 21.3887C27.6111 21.3887 21.5833 27.4164 21.5833 34.9998C21.5833 42.5831 27.6111 48.6109 35.1945 48.6109C42.7778 48.6109 48.8056 42.5831 48.8056 34.9998C48.8056 27.4164 42.7778 21.3887 35.1945 21.3887ZM35.1945 44.722C29.75 44.722 25.4722 40.4442 25.4722 34.9998C25.4722 29.5553 29.75 25.2776 35.1945 25.2776C40.6389 25.2776 44.9167 29.5553 44.9167 34.9998C44.9167 40.4442 40.6389 44.722 35.1945 44.722Z" fill="#2BC7C1"/>
<path d="M63.7778 28.5831L58.3333 26.8331L57.1667 23.9164L59.8889 18.8609C60.4722 17.6942 60.2778 16.1387 59.3055 15.1664L54.6389 10.4998C53.6667 9.52756 52.1111 9.33312 50.9444 9.91645L45.8889 12.6387L42.9722 11.472L41.2222 6.02756C40.8333 4.86089 39.6667 3.88867 38.3055 3.88867H31.6944C30.3333 3.88867 29.1667 4.86089 28.9722 6.22201L27.2222 11.6664C26.0555 11.8609 25.0833 12.2498 24.1111 12.8331L19.0556 10.1109C17.8889 9.52756 16.3333 9.722 15.3611 10.6942L10.6944 15.3609C9.72222 16.3331 9.52777 17.8887 10.1111 19.0553L12.6389 23.9164C12.25 24.8887 11.8611 26.0553 11.4722 27.0276L6.02777 28.7776C4.86111 29.1664 3.88889 30.3331 3.88889 31.6942V38.3053C3.88889 39.6664 4.86111 40.8331 6.22222 41.222L11.6667 42.972L12.8333 45.8887L10.1111 50.9442C9.52777 52.1109 9.72222 53.6664 10.6944 54.6387L15.3611 59.3053C16.3333 60.2776 17.8889 60.472 19.0556 59.8887L24.1111 57.1664L27.0278 58.3331L28.7778 63.972C29.1667 65.1387 30.3333 66.1109 31.6944 66.1109H38.3055C39.6667 66.1109 40.8333 65.1387 41.2222 63.972L42.9722 58.3331L45.8889 57.1664L50.9444 59.8887C52.1111 60.472 53.6667 60.2776 54.6389 59.3053L59.3055 54.6387C60.2778 53.6664 60.4722 52.1109 59.8889 50.9442L57.1667 45.8887L58.3333 42.972L63.9722 41.222C65.1389 40.8331 66.1111 39.6664 66.1111 38.3053V31.6942C66.1111 30.3331 65.1389 28.972 63.7778 28.5831ZM62.2222 37.722L55.2222 39.8609L55.0278 40.8331L53.2778 44.9164L52.6944 45.8887L56.1944 52.3053L52.3055 56.1942L45.8889 52.6942L44.9167 53.2776C43.5555 54.0553 42.1944 54.6387 40.8333 55.0276L39.8611 55.222L37.7222 62.222H32.2778L30.1389 55.222L29.1667 55.0276L25.0833 53.2776L24.1111 52.6942L17.6944 56.1942L13.8056 52.3053L17.3056 45.8887L16.7222 44.9164C15.9444 43.5553 15.3611 42.1942 14.9722 40.8331L14.7778 39.8609L7.77777 37.722V32.2776L14.3889 30.3331L14.7778 29.3609C15.1667 27.8053 15.75 26.4442 16.5278 25.0831L17.1111 24.1109L13.8056 17.6942L17.6944 13.8053L23.9167 17.3053L24.8889 16.722C26.25 15.9442 27.6111 15.3609 29.1667 14.972L30.1389 14.5831L32.2778 7.77756H37.7222L39.8611 14.5831L40.8333 14.972C42.1944 15.3609 43.5555 15.9442 44.9167 16.722L45.8889 17.3053L52.3055 13.8053L56.1944 17.6942L52.6944 24.1109L53.2778 25.0831C54.0555 26.4442 54.6389 27.8053 55.0278 29.1664L55.2222 30.1387L62.2222 32.2776V37.722Z" fill="#2BC7C1"/>
</svg>
