<svg width="18" height="16" viewBox="0 0 18 16" fill="none" xmlns="http://www.w3.org/2000/svg">
<path d="M18 4.96242V12.8472C18 13.6511 17.7142 14.4246 17.2011 15.0089C16.688 15.5933 15.9865 15.9442 15.2406 15.9897L15.075 15.9945H2.925C2.17788 15.9946 1.45905 15.687 0.915992 15.1349C0.37293 14.5828 0.0467988 13.828 0.0045001 13.0254L0 12.8472V4.96242L8.6868 9.8587C8.78344 9.91316 8.89091 9.94162 9 9.94162C9.10909 9.94162 9.21656 9.91316 9.3132 9.8587L18 4.96242ZM2.925 0.5H15.075C15.8 0.499906 16.4992 0.78955 17.037 1.31275C17.5748 1.83596 17.9129 2.55543 17.9856 3.33163L9 8.3964L0.0144 3.33163C0.084171 2.58625 0.398745 1.8921 0.901575 1.37395C1.4044 0.855802 2.06251 0.547633 2.7576 0.504842L2.925 0.5H15.075H2.925Z" fill="#2BC7C1"/>
</svg>
