<svg width="18" height="19" viewBox="0 0 18 19" fill="none" xmlns="http://www.w3.org/2000/svg">
<path fill-rule="evenodd" clip-rule="evenodd" d="M3.31092 16.5338C3.31092 17.1745 2.77341 17.6939 2.11054 17.6939H1.19925C0.537517 17.6939 0 17.1745 0 16.5338V1.91454C0 1.27493 0.538647 0.754395 1.19925 0.754395H2.11054C2.77454 0.754395 3.31092 1.27493 3.31092 1.91454V16.5338Z" fill="#2BC7C1"/>
<path fill-rule="evenodd" clip-rule="evenodd" d="M16.768 0.719247H5.64844C5.34055 0.718039 5.04474 0.839484 4.82586 1.05696C4.60699 1.27443 4.4829 1.57019 4.48081 1.8794V16.4986C4.48081 17.1394 5.00365 17.6588 5.64844 17.6588H6.69186V15.3668H15.7732V17.6588H16.768C17.4151 17.6588 17.9368 17.1394 17.9368 16.4986V1.8794C17.9368 1.23978 17.4151 0.719247 16.768 0.719247ZM7.86852 14.3518H6.70428V13.1577H7.86852V14.3518ZM7.86852 12.0837H6.70428V10.8895H7.86852V12.0837ZM7.86852 9.81558H6.70428V8.63955H7.86852V9.81558ZM10.127 14.3518H8.96276V13.1577H10.127V14.3518ZM10.127 12.0837H8.96276V10.8725H10.127V12.0837ZM10.127 9.81558H8.96276V8.62141H10.127V9.81558ZM12.3855 14.3518H11.2212V13.1758H12.3855V14.3518ZM12.3855 12.0837H11.2212V10.9077H12.3855V12.0837ZM12.3855 9.81558H11.2212V8.6044H12.3855V9.81558ZM15.7913 10.8975V12.0848H13.4797V10.8975H15.7913ZM13.4797 9.81558V8.6112H15.7913V9.81558H13.4797ZM15.7913 5.29066H6.70428V2.95222H15.7913V5.29066Z" fill="#2BC7C1"/>
<path fill-rule="evenodd" clip-rule="evenodd" d="M14.6089 18.8291L14.6067 16.6211H7.88885L7.89111 18.8291H14.6089Z" fill="#2BC7C1"/>
</svg>
