<svg width="14" height="19" viewBox="0 0 14 19" fill="none" xmlns="http://www.w3.org/2000/svg">
<path d="M6.76225 18.6098C6.76225 18.6098 13.5245 12.174 13.5245 7.29116C13.5245 5.49003 12.8121 3.76267 11.5439 2.48908C10.2757 1.21549 8.55571 0.5 6.76225 0.5C4.96879 0.5 3.24879 1.21549 1.98062 2.48908C0.712449 3.76267 2.67246e-08 5.49003 0 7.29116C0 12.174 6.76225 18.6098 6.76225 18.6098ZM6.76225 10.6867C5.86552 10.6867 5.00552 10.329 4.37143 9.6922C3.73735 9.0554 3.38112 8.19172 3.38112 7.29116C3.38112 6.39059 3.73735 5.52692 4.37143 4.89012C5.00552 4.25333 5.86552 3.89558 6.76225 3.89558C7.65898 3.89558 8.51898 4.25333 9.15307 4.89012C9.78715 5.52692 10.1434 6.39059 10.1434 7.29116C10.1434 8.19172 9.78715 9.0554 9.15307 9.6922C8.51898 10.329 7.65898 10.6867 6.76225 10.6867Z" fill="#2BC7C1"/>
</svg>
