<svg width="71" height="66" viewBox="0 0 71 66" fill="none" xmlns="http://www.w3.org/2000/svg">
<g clip-path="url(#clip0)">
<path fill-rule="evenodd" clip-rule="evenodd" d="M70.1396 36.1767L54.2272 20.0645V8.32059L50.1844 8.41134V15.5393L39.6848 5.13609C39.1283 4.58922 38.3753 4.28223 37.5903 4.28223C36.8053 4.28223 36.0522 4.58922 35.4958 5.13609L5.03677 36.1808C4.48637 36.7313 4.17773 37.4738 4.17773 38.2475C4.17773 39.0211 4.48637 39.7636 5.03677 40.3141C5.59324 40.8614 6.34681 41.1684 7.13214 41.1676C7.91747 41.1668 8.67041 40.8584 9.22577 40.31L37.5882 12.3012L65.959 40.31C66.2321 40.5832 66.5574 40.8003 66.9161 40.9486C67.2747 41.0968 67.6596 41.1734 68.0484 41.1738C68.4372 41.1742 68.8222 41.0984 69.1812 40.9508C69.5401 40.8032 69.8659 40.5868 70.1396 40.3141C70.6893 39.7624 70.9973 39.0194 70.9973 38.2454C70.9973 37.4714 70.6893 36.7284 70.1396 36.1767Z" fill="#2BC7C1"/>
<path fill-rule="evenodd" clip-rule="evenodd" d="M16.8854 39.3195V62.7907C16.8854 64.416 17.7958 66.033 19.2534 66.033H28.7633L29.0306 49.5619H46.0455L46.0371 66.033H55.6556C57.1131 66.033 58.2951 64.4201 58.2951 62.7907V39.3154L37.5881 19.0781L16.8854 39.3195Z" fill="#2BC7C1"/>
</g>
<defs>
<clipPath id="clip0">
<rect width="71" height="66" fill="white"/>
</clipPath>
</defs>
</svg>
